<?xml version="1.0" standalone="no"?>
<!DOCTYPE svg PUBLIC "-//W3C//DTD SVG 20010904//EN"
 "http://www.w3.org/TR/2001/REC-SVG-20010904/DTD/svg10.dtd">
<svg version="1.0" xmlns="http://www.w3.org/2000/svg"
 width="399.000000pt" height="399.000000pt" viewBox="0 0 399.000000 399.000000"
 preserveAspectRatio="xMidYMid meet">

<g transform="translate(0.000000,399.000000) scale(0.100000,-0.100000)"
fill="#000000" stroke="none">
<path d="M1730 3034 c-391 -51 -740 -199 -970 -412 -75 -69 -75 -69 -179 -92
-151 -35 -201 -75 -209 -173 l-4 -53 -73 -23 c-138 -42 -212 -111 -236 -217
-21 -93 18 -240 87 -331 24 -32 24 -34 10 -78 -43 -124 77 -319 222 -361 109
-32 315 17 428 102 l32 23 83 -56 c421 -283 1087 -378 1659 -237 275 68 536
199 701 351 l57 53 93 -19 c52 -11 95 -18 96 -17 2 1 7 51 12 112 6 60 17 144
26 187 8 43 15 81 15 83 0 2 36 -14 81 -37 45 -22 83 -38 86 -36 15 15 193
392 189 401 -6 17 -182 87 -244 97 -32 5 -83 11 -115 15 -53 5 -61 9 -75 36
-74 137 -194 272 -327 369 -225 164 -556 281 -897 318 -132 15 -419 12 -548
-5z m683 -420 c21 -4 42 -15 47 -24 6 -11 4 -84 -5 -201 -8 -101 -14 -215 -14
-254 l0 -70 30 35 c45 52 117 206 126 270 l8 55 80 0 80 0 3 -32 c7 -76 -84
-272 -172 -370 l-45 -50 30 -29 c45 -42 186 -335 173 -356 -3 -4 -38 -8 -78
-8 l-74 0 -43 107 c-31 73 -57 121 -87 155 -24 26 -47 48 -51 48 -5 0 -11 -53
-15 -117 -4 -65 -9 -120 -12 -122 -3 -3 -36 -7 -75 -9 l-69 -4 0 78 c0 44 7
183 14 309 8 127 18 293 21 370 3 77 8 159 11 183 5 41 6 42 42 42 20 0 54 -3
75 -6z m-280 -88 c18 -7 41 -23 52 -36 22 -24 43 -111 44 -176 1 -50 -6 -54
-90 -54 -55 0 -60 2 -69 26 -6 14 -10 43 -10 64 0 22 -7 45 -16 54 -24 25 -81
20 -109 -9 -22 -21 -25 -33 -25 -97 0 -116 20 -308 35 -345 18 -42 55 -58 102
-42 41 13 52 32 61 107 7 56 8 57 41 60 66 7 78 -2 85 -63 18 -154 -60 -225
-246 -225 -169 1 -216 66 -239 333 -13 149 -6 275 17 324 18 38 64 69 120 82
62 14 210 13 247 -3z m-469 -113 c18 -64 18 -91 -2 -102 -12 -6 -32 -11 -47
-11 -14 0 -28 -6 -31 -13 -2 -7 11 -47 29 -88 19 -40 40 -92 47 -114 7 -22 42
-98 78 -170 64 -130 98 -218 88 -234 -3 -4 -33 -16 -67 -26 -62 -17 -63 -17
-79 4 -8 12 -26 49 -40 82 -22 56 -26 60 -49 56 -14 -3 -54 -9 -89 -13 -74 -8
-82 -18 -82 -99 0 -84 -9 -95 -81 -95 -42 0 -61 4 -65 14 -5 14 21 428 35 554
4 35 4 65 0 67 -3 3 -35 -2 -70 -9 -75 -15 -77 -13 -78 69 l-1 51 168 33 c353
70 329 67 336 44z m-862 -75 c81 -127 134 -203 184 -264 38 -48 44 -52 38 -27
-3 15 -21 90 -40 165 -19 75 -34 143 -34 151 0 19 18 25 85 33 l53 6 11 -33
c18 -56 121 -571 121 -606 0 -30 -2 -32 -56 -43 -31 -7 -60 -8 -64 -3 -4 4
-69 91 -145 193 -76 102 -139 186 -140 188 -5 5 42 -207 64 -297 11 -42 21
-94 23 -116 l3 -40 -55 -19 c-47 -16 -58 -25 -71 -55 -40 -94 -287 -182 -382
-136 -55 26 -127 134 -113 170 5 14 118 55 153 55 18 0 29 -12 49 -55 29 -60
51 -73 97 -56 39 15 51 48 37 100 -19 72 -43 88 -146 95 -136 10 -152 14 -193
52 -53 47 -85 123 -85 201 -1 57 2 65 30 93 43 44 150 81 251 87 l83 6 38 -39
c39 -40 80 -140 69 -169 -8 -20 -60 -44 -111 -51 l-45 -7 -29 65 c-33 72 -50
84 -99 67 -41 -13 -50 -43 -31 -101 20 -60 58 -78 163 -78 108 0 152 -14 196
-61 l36 -39 -44 192 c-50 223 -73 308 -82 308 -3 0 -20 -4 -38 -9 -40 -12 -59
7 -69 66 -6 40 -5 42 22 49 16 4 61 15 99 25 111 28 108 30 167 -63z m2291
-61 c56 -23 122 -94 137 -146 12 -43 13 -181 1 -199 -6 -11 -44 -6 -191 23
-101 19 -187 32 -191 28 -15 -16 17 -78 51 -101 44 -30 109 -26 146 9 l25 23
64 -32 c36 -17 65 -38 65 -46 0 -23 -77 -83 -126 -96 -95 -27 -241 5 -307 68
-55 52 -72 98 -72 197 0 79 4 97 28 148 16 31 32 57 35 57 4 0 16 -7 26 -15
11 -8 28 -15 38 -15 33 0 77 29 84 55 4 16 13 25 25 25 11 0 24 11 30 24 10
21 16 24 48 19 20 -3 58 -15 84 -26z m352 -81 c46 -11 50 -14 47 -39 -4 -30 4
-33 31 -12 29 21 91 28 149 16 87 -19 87 -20 48 -101 -26 -53 -38 -69 -50 -64
-88 37 -141 35 -186 -7 -30 -28 -38 -56 -65 -204 -11 -66 -22 -121 -22 -122
-1 -1 -40 6 -85 15 -76 14 -83 18 -79 36 2 12 23 120 46 241 24 121 44 230 47
242 5 24 3 24 119 -1z"/>
<path d="M1432 2113 c-19 -182 -22 -232 -14 -236 7 -5 124 10 149 18 7 2 -12
60 -52 160 -35 87 -66 159 -68 161 -2 3 -9 -44 -15 -103z"/>
<path d="M2924 2166 c-28 -12 -51 -42 -41 -53 9 -8 199 -45 204 -39 13 13 -13
60 -42 77 -44 25 -86 30 -121 15z"/>
</g>
</svg>
